STARTFONT 2.1
FONT -Monotype-Plantin-Regular-R-Normal--14-100-100-100-P-72-iso8859-5
SIZE 10 100 100
FONTBOUNDINGBOX 17 16 -1 -3

STARTPROPERTIES 24
FOUNDRY "Monotype"
FAMILY_NAME "Plantin"
WEIGHT_NAME "Regular"
SLANT "R"
SETWIDTH_NAME "Normal"
ADD_STYLE_NAME ""
PIXEL_SIZE 14
POINT_SIZE 100
RESOLUTION_X 100
RESOLUTION_Y 100
SPACING "P"
AVERAGE_WIDTH 72
CHARSET_REGISTRY "iso8859"
CHARSET_ENCODING "5"
FACE_NAME "Plantin ISO Latin Cyrillic"
_DEC_DEVICE_FONTNAMES "PS=plantin-latcyrillic"
COPYRIGHT "Copyright (c) 1994 Monotype Typography Ltd."
CAP_HEIGHT 11
X_HEIGHT 7
WEIGHT 10
QUAD_WIDTH 9
DEFAULT_CHAR 160
FONT_DESCENT 4
FONT_ASCENT 13
ENDPROPERTIES

CHARS 191

STARTCHAR space
ENCODING 32
SWIDTH 250 0
DWIDTH 4 0
BBX 0 0 0 0
BITMAP
ENDCHAR

STARTCHAR exclam
ENCODING 33
SWIDTH 292 0
DWIDTH 4 0
BBX 1 10 2 0
BITMAP
80
80
80
80
80
80
80
00
80
80
ENDCHAR

STARTCHAR quotedbl
ENCODING 34
SWIDTH 406 0
DWIDTH 6 0
BBX 3 4 2 6
BITMAP
A0
A0
A0
A0
ENDCHAR

STARTCHAR numbersign
ENCODING 35
SWIDTH 500 0
DWIDTH 7 0
BBX 8 10 0 0
BITMAP
24
24
24
FF
24
24
FE
48
48
48
ENDCHAR

STARTCHAR dollar
ENCODING 36
SWIDTH 552 0
DWIDTH 8 0
BBX 6 11 1 -1
BITMAP
28
78
AC
A8
A8
78
54
54
D4
78
50
ENDCHAR

STARTCHAR percent
ENCODING 37
SWIDTH 875 0
DWIDTH 12 0
BBX 11 10 1 0
BITMAP
6080
9100
9100
9200
6400
04C0
0920
1120
1120
20C0
ENDCHAR

STARTCHAR ampersand
ENCODING 38
SWIDTH 750 0
DWIDTH 11 0
BBX 9 10 1 0
BITMAP
3800
4400
4400
2800
3380
5100
8900
8600
8600
7980
ENDCHAR

STARTCHAR quoteright
ENCODING 39
SWIDTH 292 0
DWIDTH 4 0
BBX 2 4 1 6
BITMAP
80
C0
40
80
ENDCHAR

STARTCHAR parenleft
ENCODING 40
SWIDTH 385 0
DWIDTH 5 0
BBX 4 13 1 -3
BITMAP
10
20
40
40
80
80
80
80
80
40
40
20
10
ENDCHAR

STARTCHAR parenright
ENCODING 41
SWIDTH 385 0
DWIDTH 5 0
BBX 4 13 1 -3
BITMAP
80
40
20
20
10
10
10
10
10
20
20
40
80
ENDCHAR

STARTCHAR asterisk
ENCODING 42
SWIDTH 500 0
DWIDTH 7 0
BBX 7 6 0 4
BITMAP
10
10
FE
38
28
44
ENDCHAR

STARTCHAR plus
ENCODING 43
SWIDTH 667 0
DWIDTH 9 0
BBX 7 7 1 1
BITMAP
10
10
10
FE
10
10
10
ENDCHAR

STARTCHAR comma
ENCODING 44
SWIDTH 292 0
DWIDTH 4 0
BBX 2 4 1 -2
BITMAP
80
C0
40
80
ENDCHAR

STARTCHAR minus
ENCODING 45
SWIDTH 667 0
DWIDTH 9 0
BBX 7 1 1 4
BITMAP
FE
ENDCHAR

STARTCHAR period
ENCODING 46
SWIDTH 292 0
DWIDTH 4 0
BBX 2 2 1 0
BITMAP
C0
C0
ENDCHAR

STARTCHAR slash
ENCODING 47
SWIDTH 281 0
DWIDTH 4 0
BBX 4 10 0 0
BITMAP
10
10
20
20
20
40
40
40
80
80
ENDCHAR

STARTCHAR zero
ENCODING 48
SWIDTH 552 0
DWIDTH 8 0
BBX 6 10 1 0
BITMAP
30
48
84
84
84
84
84
84
48
30
ENDCHAR

STARTCHAR one
ENCODING 49
SWIDTH 552 0
DWIDTH 8 0
BBX 3 10 3 0
BITMAP
40
C0
40
40
40
40
40
40
40
E0
ENDCHAR

STARTCHAR two
ENCODING 50
SWIDTH 552 0
DWIDTH 8 0
BBX 7 10 1 0
BITMAP
78
84
84
04
04
08
10
20
42
FC
ENDCHAR

STARTCHAR three
ENCODING 51
SWIDTH 552 0
DWIDTH 8 0
BBX 6 10 1 0
BITMAP
78
84
04
04
38
44
04
04
88
70
ENDCHAR

STARTCHAR four
ENCODING 52
SWIDTH 552 0
DWIDTH 8 0
BBX 7 10 1 0
BITMAP
04
0C
14
24
24
44
FE
04
04
0E
ENDCHAR

STARTCHAR five
ENCODING 53
SWIDTH 552 0
DWIDTH 8 0
BBX 6 10 1 0
BITMAP
7C
40
40
70
48
04
04
04
88
70
ENDCHAR

STARTCHAR six
ENCODING 54
SWIDTH 552 0
DWIDTH 8 0
BBX 6 10 1 0
BITMAP
38
40
80
B8
C4
84
84
84
48
30
ENDCHAR

STARTCHAR seven
ENCODING 55
SWIDTH 552 0
DWIDTH 8 0
BBX 6 10 1 0
BITMAP
7C
84
04
08
08
10
10
20
20
20
ENDCHAR

STARTCHAR eight
ENCODING 56
SWIDTH 552 0
DWIDTH 8 0
BBX 6 10 1 0
BITMAP
78
84
84
84
78
84
84
84
84
78
ENDCHAR

STARTCHAR nine
ENCODING 57
SWIDTH 552 0
DWIDTH 8 0
BBX 6 10 1 0
BITMAP
30
48
84
84
84
8C
74
04
08
70
ENDCHAR

STARTCHAR colon
ENCODING 58
SWIDTH 292 0
DWIDTH 4 0
BBX 2 6 1 0
BITMAP
C0
C0
00
00
C0
C0
ENDCHAR

STARTCHAR semicolon
ENCODING 59
SWIDTH 292 0
DWIDTH 4 0
BBX 2 8 1 -2
BITMAP
C0
C0
00
00
80
C0
40
80
ENDCHAR

STARTCHAR less
ENCODING 60
SWIDTH 667 0
DWIDTH 9 0
BBX 7 7 1 1
BITMAP
02
0C
30
C0
30
0C
02
ENDCHAR

STARTCHAR equal
ENCODING 61
SWIDTH 667 0
DWIDTH 9 0
BBX 7 3 1 3
BITMAP
FE
00
FE
ENDCHAR

STARTCHAR greater
ENCODING 62
SWIDTH 667 0
DWIDTH 9 0
BBX 7 7 1 1
BITMAP
80
60
18
06
18
60
80
ENDCHAR

STARTCHAR question
ENCODING 63
SWIDTH 385 0
DWIDTH 5 0
BBX 4 10 1 0
BITMAP
C0
20
10
10
20
40
40
00
40
40
ENDCHAR

STARTCHAR at
ENCODING 64
SWIDTH 917 0
DWIDTH 13 0
BBX 12 13 1 -3
BITMAP
0FC0
3020
4010
4390
8490
8890
9190
9120
9760
5990
4010
3060
0F80
ENDCHAR

STARTCHAR A
ENCODING 65
SWIDTH 719 0
DWIDTH 10 0
BBX 10 10 0 0
BITMAP
0C00
0C00
0C00
1200
1200
3F00
2100
4080
4080
E1C0
ENDCHAR

STARTCHAR B
ENCODING 66
SWIDTH 688 0
DWIDTH 10 0
BBX 8 10 1 0
BITMAP
FE
41
41
42
7C
42
41
41
42
FC
ENDCHAR

STARTCHAR C
ENCODING 67
SWIDTH 781 0
DWIDTH 11 0
BBX 9 10 1 0
BITMAP
1E80
6180
4080
8000
8000
8000
8000
4080
6180
1E80
ENDCHAR

STARTCHAR D
ENCODING 68
SWIDTH 844 0
DWIDTH 12 0
BBX 10 10 1 0
BITMAP
FE00
4180
4080
4040
4040
4040
4040
4080
4180
FE00
ENDCHAR

STARTCHAR E
ENCODING 69
SWIDTH 677 0
DWIDTH 9 0
BBX 8 10 1 0
BITMAP
FF
41
41
44
7C
44
40
41
41
FF
ENDCHAR

STARTCHAR F
ENCODING 70
SWIDTH 656 0
DWIDTH 9 0
BBX 8 10 1 0
BITMAP
FF
41
41
44
7C
44
40
40
40
E0
ENDCHAR

STARTCHAR G
ENCODING 71
SWIDTH 833 0
DWIDTH 12 0
BBX 11 10 1 0
BITMAP
1F40
60C0
4040
8000
8000
80E0
8040
4040
6040
1F80
ENDCHAR

STARTCHAR H
ENCODING 72
SWIDTH 854 0
DWIDTH 12 0
BBX 10 10 1 0
BITMAP
E1C0
4080
4080
4080
7F80
4080
4080
4080
4080
E1C0
ENDCHAR

STARTCHAR I
ENCODING 73
SWIDTH 375 0
DWIDTH 5 0
BBX 3 10 1 0
BITMAP
E0
40
40
40
40
40
40
40
40
E0
ENDCHAR

STARTCHAR J
ENCODING 74
SWIDTH 354 0
DWIDTH 5 0
BBX 5 13 -1 -3
BITMAP
38
10
10
10
10
10
10
10
10
10
10
90
60
ENDCHAR

STARTCHAR K
ENCODING 75
SWIDTH 802 0
DWIDTH 10 0
BBX 9 10 1 0
BITMAP
E700
4200
4400
4800
7000
5000
4800
4400
4200
E380
ENDCHAR

STARTCHAR L
ENCODING 76
SWIDTH 677 0
DWIDTH 9 0
BBX 8 10 1 0
BITMAP
E0
40
40
40
40
40
40
41
41
FF
ENDCHAR

STARTCHAR M
ENCODING 77
SWIDTH 1010 0
DWIDTH 14 0
BBX 13 10 1 0
BITMAP
3060
1040
1040
28A0
28A0
2520
2520
4210
4210
E238
ENDCHAR

STARTCHAR N
ENCODING 78
SWIDTH 844 0
DWIDTH 12 0
BBX 10 10 1 0
BITMAP
C1C0
6080
5080
5080
4880
4480
4280
4280
4180
E080
ENDCHAR

STARTCHAR O
ENCODING 79
SWIDTH 812 0
DWIDTH 11 0
BBX 10 10 1 0
BITMAP
1E00
6180
4080
8040
8040
8040
8040
4080
6180
1E00
ENDCHAR

STARTCHAR P
ENCODING 80
SWIDTH 635 0
DWIDTH 9 0
BBX 8 10 1 0
BITMAP
FC
42
41
41
42
5C
40
40
40
E0
ENDCHAR

STARTCHAR Q
ENCODING 81
SWIDTH 812 0
DWIDTH 11 0
BBX 10 13 1 -3
BITMAP
1E00
6180
4080
8040
8040
8040
8040
4080
6180
1E00
0400
0300
00C0
ENDCHAR

STARTCHAR R
ENCODING 82
SWIDTH 719 0
DWIDTH 10 0
BBX 10 10 1 0
BITMAP
FE00
4100
4100
4100
7E00
4800
4400
4200
4100
E1C0
ENDCHAR

STARTCHAR S
ENCODING 83
SWIDTH 594 0
DWIDTH 8 0
BBX 6 10 1 0
BITMAP
74
8C
84
80
60
18
04
84
C4
B8
ENDCHAR

STARTCHAR T
ENCODING 84
SWIDTH 760 0
DWIDTH 11 0
BBX 11 10 0 0
BITMAP
FFE0
8420
8420
0400
0400
0400
0400
0400
0400
0E00
ENDCHAR

STARTCHAR U
ENCODING 85
SWIDTH 833 0
DWIDTH 12 0
BBX 10 10 1 0
BITMAP
E1C0
4080
4080
4080
4080
4080
4080
4080
2100
1E00
ENDCHAR

STARTCHAR V
ENCODING 86
SWIDTH 708 0
DWIDTH 10 0
BBX 9 10 1 0
BITMAP
E380
4100
4100
2200
2200
1400
1400
0800
0800
0800
ENDCHAR

STARTCHAR W
ENCODING 87
SWIDTH 1000 0
DWIDTH 14 0
BBX 13 10 1 0
BITMAP
EDB8
4510
4510
2220
2220
1540
1540
0880
0880
0880
ENDCHAR

STARTCHAR X
ENCODING 88
SWIDTH 781 0
DWIDTH 11 0
BBX 10 10 1 0
BITMAP
E1C0
4080
2100
1200
0C00
0C00
1200
2100
4080
E1C0
ENDCHAR

STARTCHAR Y
ENCODING 89
SWIDTH 719 0
DWIDTH 10 0
BBX 9 10 1 0
BITMAP
E380
4100
2200
1400
0800
0800
0800
0800
0800
1C00
ENDCHAR

STARTCHAR Z
ENCODING 90
SWIDTH 677 0
DWIDTH 9 0
BBX 8 10 1 0
BITMAP
FF
81
82
04
08
10
20
41
81
FF
ENDCHAR

STARTCHAR bracketleft
ENCODING 91
SWIDTH 375 0
DWIDTH 5 0
BBX 2 13 2 -3
BITMAP
C0
80
80
80
80
80
80
80
80
80
80
80
C0
ENDCHAR

STARTCHAR backslash
ENCODING 92
SWIDTH 281 0
DWIDTH 4 0
BBX 4 10 0 0
BITMAP
80
80
40
40
40
20
20
20
10
10
ENDCHAR

STARTCHAR bracketright
ENCODING 93
SWIDTH 375 0
DWIDTH 5 0
BBX 2 13 2 -3
BITMAP
C0
40
40
40
40
40
40
40
40
40
40
40
C0
ENDCHAR

STARTCHAR asciicircum
ENCODING 94
SWIDTH 469 0
DWIDTH 7 0
BBX 7 4 0 6
BITMAP
10
28
44
82
ENDCHAR

STARTCHAR underscore
ENCODING 95
SWIDTH 500 0
DWIDTH 7 0
BBX 7 1 0 -3
BITMAP
FE
ENDCHAR

STARTCHAR quoteleft
ENCODING 96
SWIDTH 292 0
DWIDTH 4 0
BBX 2 4 1 6
BITMAP
40
80
C0
40
ENDCHAR

STARTCHAR a
ENCODING 97
SWIDTH 479 0
DWIDTH 7 0
BBX 6 7 1 0
BITMAP
70
88
08
78
88
98
6C
ENDCHAR

STARTCHAR b
ENCODING 98
SWIDTH 562 0
DWIDTH 8 0
BBX 7 10 0 0
BITMAP
40
C0
40
58
64
42
42
42
44
38
ENDCHAR

STARTCHAR c
ENCODING 99
SWIDTH 469 0
DWIDTH 7 0
BBX 5 7 1 0
BITMAP
38
48
80
80
80
48
30
ENDCHAR

STARTCHAR d
ENCODING 100
SWIDTH 573 0
DWIDTH 8 0
BBX 7 10 1 0
BITMAP
04
0C
04
34
4C
84
84
84
4C
36
ENDCHAR

STARTCHAR e
ENCODING 101
SWIDTH 469 0
DWIDTH 7 0
BBX 6 7 1 0
BITMAP
30
48
84
FC
80
44
38
ENDCHAR

STARTCHAR f
ENCODING 102
SWIDTH 312 0
DWIDTH 4 0
BBX 5 10 0 0
BITMAP
30
48
40
F0
40
40
40
40
40
E0
ENDCHAR

STARTCHAR g
ENCODING 103
SWIDTH 500 0
DWIDTH 7 0
BBX 6 10 1 -3
BITMAP
74
88
88
88
70
80
78
84
84
78
ENDCHAR

STARTCHAR h
ENCODING 104
SWIDTH 562 0
DWIDTH 8 0
BBX 7 10 1 0
BITMAP
40
C0
40
58
64
44
44
44
44
EE
ENDCHAR

STARTCHAR i
ENCODING 105
SWIDTH 271 0
DWIDTH 4 0
BBX 3 10 1 0
BITMAP
40
40
00
40
C0
40
40
40
40
E0
ENDCHAR

STARTCHAR j
ENCODING 106
SWIDTH 260 0
DWIDTH 4 0
BBX 2 13 1 -3
BITMAP
40
40
00
40
C0
40
40
40
40
40
40
40
80
ENDCHAR

STARTCHAR k
ENCODING 107
SWIDTH 510 0
DWIDTH 7 0
BBX 7 10 0 0
BITMAP
40
C0
40
4E
44
48
70
48
44
EE
ENDCHAR

STARTCHAR l
ENCODING 108
SWIDTH 271 0
DWIDTH 4 0
BBX 3 10 1 0
BITMAP
40
C0
40
40
40
40
40
40
40
E0
ENDCHAR

STARTCHAR m
ENCODING 109
SWIDTH 865 0
DWIDTH 12 0
BBX 11 7 1 0
BITMAP
5980
E640
4440
4440
4440
4440
EEE0
ENDCHAR

STARTCHAR n
ENCODING 110
SWIDTH 573 0
DWIDTH 8 0
BBX 7 7 1 0
BITMAP
58
E4
44
44
44
44
EE
ENDCHAR

STARTCHAR o
ENCODING 111
SWIDTH 542 0
DWIDTH 8 0
BBX 6 7 1 0
BITMAP
30
48
84
84
84
48
30
ENDCHAR

STARTCHAR p
ENCODING 112
SWIDTH 562 0
DWIDTH 9 0
BBX 7 10 1 -3
BITMAP
58
E4
42
42
42
64
58
40
40
E0
ENDCHAR

STARTCHAR q
ENCODING 113
SWIDTH 562 0
DWIDTH 8 0
BBX 7 10 1 -3
BITMAP
34
4C
84
84
84
4C
34
04
04
0E
ENDCHAR

STARTCHAR r
ENCODING 114
SWIDTH 375 0
DWIDTH 6 0
BBX 5 7 1 0
BITMAP
58
E8
40
40
40
40
E0
ENDCHAR

STARTCHAR s
ENCODING 115
SWIDTH 396 0
DWIDTH 6 0
BBX 4 7 1 0
BITMAP
70
90
80
60
10
90
E0
ENDCHAR

STARTCHAR t
ENCODING 116
SWIDTH 333 0
DWIDTH 4 0
BBX 4 8 0 0
BITMAP
40
F0
40
40
40
40
40
30
ENDCHAR

STARTCHAR u
ENCODING 117
SWIDTH 573 0
DWIDTH 8 0
BBX 7 7 1 0
BITMAP
CC
44
44
44
44
4C
36
ENDCHAR

STARTCHAR v
ENCODING 118
SWIDTH 479 0
DWIDTH 7 0
BBX 7 7 0 0
BITMAP
EE
44
44
28
28
10
10
ENDCHAR

STARTCHAR w
ENCODING 119
SWIDTH 729 0
DWIDTH 11 0
BBX 11 7 0 0
BITMAP
EEE0
4440
4440
2A80
2A80
1100
1100
ENDCHAR

STARTCHAR x
ENCODING 120
SWIDTH 500 0
DWIDTH 7 0
BBX 7 7 0 0
BITMAP
EE
44
28
10
28
44
EE
ENDCHAR

STARTCHAR y
ENCODING 121
SWIDTH 479 0
DWIDTH 7 0
BBX 7 10 0 -3
BITMAP
EE
44
44
28
28
28
10
10
20
C0
ENDCHAR

STARTCHAR z
ENCODING 122
SWIDTH 437 0
DWIDTH 7 0
BBX 5 7 1 0
BITMAP
F8
88
10
20
40
88
F8
ENDCHAR

STARTCHAR braceleft
ENCODING 123
SWIDTH 479 0
DWIDTH 7 0
BBX 4 13 2 -3
BITMAP
10
20
40
40
40
40
80
40
40
40
40
20
10
ENDCHAR

STARTCHAR bar
ENCODING 124
SWIDTH 198 0
DWIDTH 3 0
BBX 1 13 1 -3
BITMAP
80
80
80
80
80
80
80
80
80
80
80
80
80
ENDCHAR

STARTCHAR braceright
ENCODING 125
SWIDTH 479 0
DWIDTH 7 0
BBX 4 13 2 -3
BITMAP
80
40
20
20
20
20
10
20
20
20
20
40
80
ENDCHAR

STARTCHAR asciitilde
ENCODING 126
SWIDTH 542 0
DWIDTH 8 0
BBX 7 2 1 4
BITMAP
72
9C
ENDCHAR

STARTCHAR space
ENCODING 160
SWIDTH 250 0
DWIDTH 4 0
BBX 0 0 0 0
BITMAP
ENDCHAR

STARTCHAR afii10023
ENCODING 161
SWIDTH 677 0
DWIDTH 9 0
BBX 8 12 1 0
BITMAP
36
00
FF
41
41
44
7C
44
40
41
41
FF
ENDCHAR

STARTCHAR afii10051
ENCODING 162
SWIDTH 823 0
DWIDTH 11 0
BBX 11 10 0 0
BITMAP
FF80
8880
0800
0B80
0C40
0820
0820
0820
0940
1D80
ENDCHAR

STARTCHAR afii10052
ENCODING 163
SWIDTH 635 0
DWIDTH 8 0
BBX 7 13 1 0
BITMAP
08
10
00
FE
42
42
40
40
40
40
40
40
E0
ENDCHAR

STARTCHAR afii10053
ENCODING 164
SWIDTH 729 0
DWIDTH 10 0
BBX 9 10 1 0
BITMAP
1F00
6080
4080
8000
FC00
8000
8000
4080
6180
1E00
ENDCHAR

STARTCHAR afii10054
ENCODING 165
SWIDTH 594 0
DWIDTH 8 0
BBX 6 10 1 0
BITMAP
74
8C
84
80
60
18
04
84
C4
B8
ENDCHAR

STARTCHAR afii10055
ENCODING 166
SWIDTH 375 0
DWIDTH 5 0
BBX 3 10 1 0
BITMAP
E0
40
40
40
40
40
40
40
40
E0
ENDCHAR

STARTCHAR afii10056
ENCODING 167
SWIDTH 375 0
DWIDTH 5 0
BBX 5 12 0 0
BITMAP
D8
00
70
20
20
20
20
20
20
20
20
70
ENDCHAR

STARTCHAR afii10057
ENCODING 168
SWIDTH 354 0
DWIDTH 5 0
BBX 5 13 -1 -3
BITMAP
38
10
10
10
10
10
10
10
10
10
10
90
60
ENDCHAR

STARTCHAR afii10058
ENCODING 169
SWIDTH 986 0
DWIDTH 14 0
BBX 15 10 -1 0
BITMAP
3FC0
1080
1080
1080
10F8
1084
1082
1082
9084
61F8
ENDCHAR

STARTCHAR afii10059
ENCODING 170
SWIDTH 1015 0
DWIDTH 14 0
BBX 13 10 1 0
BITMAP
E700
4200
4200
4200
7FE0
4210
4208
4208
4210
E7E0
ENDCHAR

STARTCHAR afii10060
ENCODING 171
SWIDTH 823 0
DWIDTH 12 0
BBX 11 10 0 0
BITMAP
FF80
8880
0800
0B80
0C40
0840
0840
0840
0840
1CE0
ENDCHAR

STARTCHAR afii10061
ENCODING 172
SWIDTH 750 0
DWIDTH 10 0
BBX 9 13 1 0
BITMAP
0400
0800
0000
E180
4200
4400
4400
7800
4400
4200
4200
4100
E180
ENDCHAR

STARTCHAR hyphen
ENCODING 173
SWIDTH 365 0
DWIDTH 5 0
BBX 5 1 0 3
BITMAP
F8
ENDCHAR

STARTCHAR afii10062
ENCODING 174
SWIDTH 750 0
DWIDTH 11 0
BBX 9 13 1 0
BITMAP
2200
1C00
0000
E380
4100
4100
2200
2200
1400
1400
0800
4800
3000
ENDCHAR

STARTCHAR afii10145
ENCODING 175
SWIDTH 854 0
DWIDTH 12 0
BBX 10 12 1 -2
BITMAP
E1C0
4080
4080
4080
4080
4080
4080
4080
4080
FFC0
0800
0800
ENDCHAR

STARTCHAR afii10017
ENCODING 176
SWIDTH 719 0
DWIDTH 10 0
BBX 10 10 0 0
BITMAP
0C00
0C00
0C00
1200
1200
3F00
2100
4080
4080
E1C0
ENDCHAR

STARTCHAR afii10018
ENCODING 177
SWIDTH 656 0
DWIDTH 9 0
BBX 8 10 1 0
BITMAP
FE
42
42
40
7C
42
41
41
42
FC
ENDCHAR

STARTCHAR afii10019
ENCODING 178
SWIDTH 688 0
DWIDTH 10 0
BBX 8 10 1 0
BITMAP
FE
41
41
42
7C
42
41
41
42
FC
ENDCHAR

STARTCHAR afii10020
ENCODING 179
SWIDTH 635 0
DWIDTH 8 0
BBX 7 10 1 0
BITMAP
FE
42
42
40
40
40
40
40
40
E0
ENDCHAR

STARTCHAR afii10021
ENCODING 180
SWIDTH 792 0
DWIDTH 12 0
BBX 11 12 0 -2
BITMAP
3FC0
1080
1080
1080
2080
2080
2080
2080
4080
FFE0
8020
8020
ENDCHAR

STARTCHAR afii10022
ENCODING 181
SWIDTH 677 0
DWIDTH 9 0
BBX 8 10 1 0
BITMAP
FF
41
41
44
7C
44
40
41
41
FF
ENDCHAR

STARTCHAR afii10024
ENCODING 182
SWIDTH 1031 0
DWIDTH 13 0
BBX 13 10 0 0
BITMAP
CF98
2220
1240
1240
0F80
1240
2220
2220
4210
CF98
ENDCHAR

STARTCHAR afii10025
ENCODING 183
SWIDTH 667 0
DWIDTH 9 0
BBX 9 10 0 0
BITMAP
3E00
4100
4100
0100
0E00
0100
0080
8080
4100
3E00
ENDCHAR

STARTCHAR afii10026
ENCODING 184
SWIDTH 854 0
DWIDTH 12 0
BBX 10 10 1 0
BITMAP
E1C0
4080
4180
4280
4480
4880
5080
6080
4080
E1C0
ENDCHAR

STARTCHAR afii10027
ENCODING 185
SWIDTH 854 0
DWIDTH 12 0
BBX 10 13 1 0
BITMAP
1100
0E00
0000
E1C0
4080
4180
4280
4480
4880
5080
6080
4080
E1C0
ENDCHAR

STARTCHAR afii10028
ENCODING 186
SWIDTH 750 0
DWIDTH 10 0
BBX 9 10 1 0
BITMAP
E180
4200
4400
4400
7800
4400
4200
4200
4100
E180
ENDCHAR

STARTCHAR afii10029
ENCODING 187
SWIDTH 760 0
DWIDTH 10 0
BBX 10 10 -1 0
BITMAP
3FC0
1080
1080
1080
1080
1080
1080
1080
9080
61C0
ENDCHAR

STARTCHAR afii10030
ENCODING 188
SWIDTH 1010 0
DWIDTH 14 0
BBX 13 10 1 0
BITMAP
3060
1040
1040
28A0
28A0
2520
2520
4210
4210
E238
ENDCHAR

STARTCHAR afii10031
ENCODING 189
SWIDTH 854 0
DWIDTH 12 0
BBX 10 10 1 0
BITMAP
E1C0
4080
4080
4080
7F80
4080
4080
4080
4080
E1C0
ENDCHAR

STARTCHAR afii10032
ENCODING 190
SWIDTH 813 0
DWIDTH 11 0
BBX 10 10 1 0
BITMAP
1E00
6180
4080
8040
8040
8040
8040
4080
6180
1E00
ENDCHAR

STARTCHAR afii10033
ENCODING 191
SWIDTH 854 0
DWIDTH 12 0
BBX 10 10 1 0
BITMAP
FFC0
4080
4080
4080
4080
4080
4080
4080
4080
E1C0
ENDCHAR

STARTCHAR afii10034
ENCODING 192
SWIDTH 635 0
DWIDTH 9 0
BBX 8 10 1 0
BITMAP
FC
42
41
41
42
5C
40
40
40
E0
ENDCHAR

STARTCHAR afii10035
ENCODING 193
SWIDTH 781 0
DWIDTH 11 0
BBX 9 10 1 0
BITMAP
1E80
6180
4080
8000
8000
8000
8000
4080
6180
1E80
ENDCHAR

STARTCHAR afii10036
ENCODING 194
SWIDTH 760 0
DWIDTH 11 0
BBX 11 10 0 0
BITMAP
FFE0
8420
8420
0400
0400
0400
0400
0400
0400
0E00
ENDCHAR

STARTCHAR afii10037
ENCODING 195
SWIDTH 750 0
DWIDTH 11 0
BBX 9 10 1 0
BITMAP
E380
4100
4100
2200
2200
1400
1400
0800
4800
3000
ENDCHAR

STARTCHAR afii10038
ENCODING 196
SWIDTH 974 0
DWIDTH 13 0
BBX 11 10 1 0
BITMAP
0E00
0400
7FC0
8420
8420
8420
8420
7FC0
0400
0E00
ENDCHAR

STARTCHAR afii10039
ENCODING 197
SWIDTH 781 0
DWIDTH 11 0
BBX 10 10 1 0
BITMAP
E1C0
4080
2100
1200
0C00
0C00
1200
2100
4080
E1C0
ENDCHAR

STARTCHAR afii10040
ENCODING 198
SWIDTH 854 0
DWIDTH 12 0
BBX 11 12 1 -2
BITMAP
E1C0
4080
4080
4080
4080
4080
4080
4080
4080
FFE0
0020
0020
ENDCHAR

STARTCHAR afii10041
ENCODING 199
SWIDTH 854 0
DWIDTH 12 0
BBX 10 10 1 0
BITMAP
E1C0
4080
4080
4080
4080
4180
3E80
0080
0080
01C0
ENDCHAR

STARTCHAR afii10042
ENCODING 200
SWIDTH 1052 0
DWIDTH 15 0
BBX 13 10 1 0
BITMAP
E738
4210
4210
4210
4210
4210
4210
4210
4210
FFF8
ENDCHAR

STARTCHAR afii10043
ENCODING 201
SWIDTH 1052 0
DWIDTH 15 0
BBX 14 12 1 -2
BITMAP
E738
4210
4210
4210
4210
4210
4210
4210
4210
FFFC
0004
0004
ENDCHAR

STARTCHAR afii10044
ENCODING 202
SWIDTH 775 0
DWIDTH 11 0
BBX 11 10 0 0
BITMAP
FC00
8800
8800
0800
0F80
0840
0820
0820
0840
1F80
ENDCHAR

STARTCHAR afii10045
ENCODING 203
SWIDTH 1031 0
DWIDTH 14 0
BBX 12 10 1 0
BITMAP
E070
4020
4020
4020
7C20
4220
4120
4120
4220
FC70
ENDCHAR

STARTCHAR afii10046
ENCODING 204
SWIDTH 632 0
DWIDTH 9 0
BBX 8 10 1 0
BITMAP
E0
40
40
40
7C
42
41
41
42
FC
ENDCHAR

STARTCHAR afii10047
ENCODING 205
SWIDTH 719 0
DWIDTH 10 0
BBX 9 10 1 0
BITMAP
7C00
8300
8100
0080
1F80
0080
0080
8100
C300
3C00
ENDCHAR

STARTCHAR afii10048
ENCODING 206
SWIDTH 1177 0
DWIDTH 16 0
BBX 15 10 1 0
BITMAP
E0F0
430C
4204
4402
7C02
4402
4402
4204
430C
E0F0
ENDCHAR

STARTCHAR afii10049
ENCODING 207
SWIDTH 740 0
DWIDTH 10 0
BBX 10 10 -1 0
BITMAP
1FC0
2080
2080
2080
1F80
0480
0880
1080
2080
E1C0
ENDCHAR

STARTCHAR afii10065
ENCODING 208
SWIDTH 479 0
DWIDTH 7 0
BBX 6 7 1 0
BITMAP
70
88
08
78
88
98
6C
ENDCHAR

STARTCHAR afii10066
ENCODING 209
SWIDTH 542 0
DWIDTH 8 0
BBX 6 10 1 0
BITMAP
04
38
40
B0
C8
84
84
84
88
70
ENDCHAR

STARTCHAR afii10067
ENCODING 210
SWIDTH 552 0
DWIDTH 8 0
BBX 7 7 0 0
BITMAP
FC
42
42
7C
42
42
FC
ENDCHAR

STARTCHAR afii10068
ENCODING 211
SWIDTH 438 0
DWIDTH 6 0
BBX 6 7 1 0
BITMAP
FC
44
40
40
40
40
E0
ENDCHAR

STARTCHAR afii10069
ENCODING 212
SWIDTH 542 0
DWIDTH 8 0
BBX 7 9 0 -2
BITMAP
7E
24
24
24
44
44
FE
82
82
ENDCHAR

STARTCHAR afii10070
ENCODING 213
SWIDTH 469 0
DWIDTH 7 0
BBX 6 7 1 0
BITMAP
30
48
84
FC
80
44
38
ENDCHAR

STARTCHAR afii10072
ENCODING 214
SWIDTH 854 0
DWIDTH 11 0
BBX 11 7 0 0
BITMAP
CE60
4440
2480
3F80
2480
4440
CE60
ENDCHAR

STARTCHAR afii10073
ENCODING 215
SWIDTH 469 0
DWIDTH 7 0
BBX 5 7 1 0
BITMAP
70
88
08
30
08
88
70
ENDCHAR

STARTCHAR afii10074
ENCODING 216
SWIDTH 583 0
DWIDTH 8 0
BBX 7 7 1 0
BITMAP
EE
44
4C
54
64
44
EE
ENDCHAR

STARTCHAR afii10075
ENCODING 217
SWIDTH 583 0
DWIDTH 8 0
BBX 7 10 1 0
BITMAP
44
38
00
EE
44
4C
54
64
44
EE
ENDCHAR

STARTCHAR afii10076
ENCODING 218
SWIDTH 573 0
DWIDTH 8 0
BBX 7 7 1 0
BITMAP
E6
48
48
70
48
44
E6
ENDCHAR

STARTCHAR afii10077
ENCODING 219
SWIDTH 573 0
DWIDTH 8 0
BBX 8 7 0 0
BITMAP
7F
22
22
22
22
22
C7
ENDCHAR

STARTCHAR afii10078
ENCODING 220
SWIDTH 625 0
DWIDTH 9 0
BBX 9 7 0 0
BITMAP
2200
2200
3600
5500
4900
4900
C980
ENDCHAR

STARTCHAR afii10079
ENCODING 221
SWIDTH 563 0
DWIDTH 8 0
BBX 7 7 1 0
BITMAP
EE
44
44
7C
44
44
EE
ENDCHAR

STARTCHAR afii10080
ENCODING 222
SWIDTH 542 0
DWIDTH 8 0
BBX 6 7 1 0
BITMAP
30
48
84
84
84
48
30
ENDCHAR

STARTCHAR afii10081
ENCODING 223
SWIDTH 573 0
DWIDTH 8 0
BBX 7 7 1 0
BITMAP
FE
44
44
44
44
44
EE
ENDCHAR

STARTCHAR afii10082
ENCODING 224
SWIDTH 562 0
DWIDTH 9 0
BBX 7 10 1 -3
BITMAP
58
E4
42
42
42
64
58
40
40
E0
ENDCHAR

STARTCHAR afii10083
ENCODING 225
SWIDTH 469 0
DWIDTH 7 0
BBX 5 7 1 0
BITMAP
38
48
80
80
80
48
30
ENDCHAR

STARTCHAR afii10084
ENCODING 226
SWIDTH 458 0
DWIDTH 7 0
BBX 7 7 0 0
BITMAP
FE
92
92
10
10
10
38
ENDCHAR

STARTCHAR afii10085
ENCODING 227
SWIDTH 479 0
DWIDTH 7 0
BBX 7 10 0 -3
BITMAP
EE
44
44
28
28
28
10
10
20
C0
ENDCHAR

STARTCHAR afii10086
ENCODING 228
SWIDTH 750 0
DWIDTH 11 0
BBX 9 13 1 -3
BITMAP
0800
1800
0800
6B00
9C80
8880
8880
8880
9C80
6B00
0800
0800
1C00
ENDCHAR

STARTCHAR afii10087
ENCODING 229
SWIDTH 500 0
DWIDTH 7 0
BBX 7 7 0 0
BITMAP
EE
44
28
10
28
44
EE
ENDCHAR

STARTCHAR afii10088
ENCODING 230
SWIDTH 573 0
DWIDTH 8 0
BBX 7 9 1 -2
BITMAP
EE
44
44
44
44
44
FE
02
02
ENDCHAR

STARTCHAR afii10089
ENCODING 231
SWIDTH 573 0
DWIDTH 7 0
BBX 7 7 0 0
BITMAP
EE
44
44
4C
34
04
0E
ENDCHAR

STARTCHAR afii10090
ENCODING 232
SWIDTH 854 0
DWIDTH 12 0
BBX 11 7 1 0
BITMAP
EEE0
4440
4440
4440
4440
4440
FFE0
ENDCHAR

STARTCHAR afii10091
ENCODING 233
SWIDTH 854 0
DWIDTH 12 0
BBX 11 9 1 -2
BITMAP
EEE0
4440
4440
4440
4440
4440
FFE0
0020
0020
ENDCHAR

STARTCHAR afii10092
ENCODING 234
SWIDTH 638 0
DWIDTH 9 0
BBX 8 7 0 0
BITMAP
F8
90
90
1E
11
11
3E
ENDCHAR

STARTCHAR afii10093
ENCODING 235
SWIDTH 792 0
DWIDTH 12 0
BBX 10 7 1 0
BITMAP
E1C0
4080
4080
7880
4480
4480
F9C0
ENDCHAR

STARTCHAR afii10094
ENCODING 236
SWIDTH 485 0
DWIDTH 8 0
BBX 6 7 1 0
BITMAP
E0
40
40
78
44
44
F8
ENDCHAR

STARTCHAR afii10095
ENCODING 237
SWIDTH 490 0
DWIDTH 7 0
BBX 5 7 1 0
BITMAP
F0
88
08
38
08
88
70
ENDCHAR

STARTCHAR afii10096
ENCODING 238
SWIDTH 813 0
DWIDTH 12 0
BBX 10 7 1 0
BITMAP
E300
4480
4840
7840
4840
4480
E300
ENDCHAR

STARTCHAR afii10097
ENCODING 239
SWIDTH 563 0
DWIDTH 7 0
BBX 7 7 0 0
BITMAP
3E
44
44
3C
24
44
CE
ENDCHAR

STARTCHAR afii61352
ENCODING 240
SWIDTH 1031 0
DWIDTH 15 0
BBX 14 10 0 0
BITMAP
3060
1880
1880
1498
24A4
22A4
22A4
2198
2180
C0BC
ENDCHAR

STARTCHAR afii10071
ENCODING 241
SWIDTH 469 0
DWIDTH 7 0
BBX 6 9 1 0
BITMAP
6C
00
30
48
84
FC
80
44
38
ENDCHAR

STARTCHAR afii10099
ENCODING 242
SWIDTH 513 0
DWIDTH 8 0
BBX 6 13 1 -3
BITMAP
C0
40
F8
40
58
64
44
44
44
E4
04
08
10
ENDCHAR

STARTCHAR afii10100
ENCODING 243
SWIDTH 458 0
DWIDTH 6 0
BBX 6 10 1 0
BITMAP
10
20
00
FC
44
40
40
40
40
E0
ENDCHAR

STARTCHAR afii10101
ENCODING 244
SWIDTH 490 0
DWIDTH 7 0
BBX 5 7 1 0
BITMAP
78
88
80
E0
80
88
70
ENDCHAR

STARTCHAR afii10102
ENCODING 245
SWIDTH 396 0
DWIDTH 6 0
BBX 4 7 1 0
BITMAP
70
90
80
60
10
90
E0
ENDCHAR

STARTCHAR afii10103
ENCODING 246
SWIDTH 271 0
DWIDTH 4 0
BBX 3 10 1 0
BITMAP
40
40
00
40
C0
40
40
40
40
E0
ENDCHAR

STARTCHAR afii10104
ENCODING 247
SWIDTH 271 0
DWIDTH 4 0
BBX 5 9 0 0
BITMAP
D8
00
20
60
20
20
20
20
70
ENDCHAR

STARTCHAR afii10105
ENCODING 248
SWIDTH 260 0
DWIDTH 4 0
BBX 2 13 1 -3
BITMAP
40
40
00
40
C0
40
40
40
40
40
40
40
80
ENDCHAR

STARTCHAR afii10106
ENCODING 249
SWIDTH 831 0
DWIDTH 12 0
BBX 11 7 0 0
BITMAP
7F00
2200
2200
23C0
2220
2220
C7C0
ENDCHAR

STARTCHAR afii10107
ENCODING 250
SWIDTH 814 0
DWIDTH 12 0
BBX 10 7 1 0
BITMAP
EE00
4400
4400
7F80
4440
4440
EF80
ENDCHAR

STARTCHAR afii10108
ENCODING 251
SWIDTH 573 0
DWIDTH 8 0
BBX 7 10 1 0
BITMAP
C0
40
F8
40
58
64
44
44
44
EE
ENDCHAR

STARTCHAR afii10109
ENCODING 252
SWIDTH 573 0
DWIDTH 8 0
BBX 7 10 1 0
BITMAP
08
10
00
E6
48
48
70
48
44
E6
ENDCHAR

STARTCHAR section
ENCODING 253
SWIDTH 427 0
DWIDTH 7 0
BBX 5 13 1 -3
BITMAP
30
48
C0
A0
A0
90
50
48
28
18
10
90
60
ENDCHAR

STARTCHAR afii10110
ENCODING 254
SWIDTH 479 0
DWIDTH 7 0
BBX 7 13 0 -3
BITMAP
44
38
00
EE
44
44
28
28
28
10
10
20
C0
ENDCHAR

STARTCHAR afii10193
ENCODING 255
SWIDTH 573 0
DWIDTH 8 0
BBX 7 9 1 -2
BITMAP
EE
44
44
44
44
44
FE
10
10
ENDCHAR
ENDFONT
